<svg width="18" height="22" viewBox="0 0 18 22" fill="none" xmlns="http://www.w3.org/2000/svg">
<path d="M17 10V16M12 18V21M6 18V21M1 10V16M7 3L5.5 1M11 3L12.5 1M3.5 9H14.5M3.5 8.5C3.5 7.04131 4.07946 5.64236 5.11091 4.61091C6.14236 3.57946 7.54131 3 9 3C10.4587 3 11.8576 3.57946 12.8891 4.61091C13.9205 5.64236 14.5 7.04131 14.5 8.5V15C14.5 16.414 14.5 17.121 14.06 17.56C13.621 18 12.914 18 11.5 18H6.5C5.086 18 4.379 18 3.94 17.56C3.5 17.121 3.5 16.414 3.5 15V8.5Z" stroke="#4F4F4F" stroke-width="1.66667" stroke-linecap="round" stroke-linejoin="round"/>
</svg>
