<svg width="121" height="51" viewBox="0 0 121 51" fill="none" xmlns="http://www.w3.org/2000/svg">
<path fill-rule="evenodd" clip-rule="evenodd" d="M22.1654 7.08052C20.7489 8.7683 18.4824 10.0995 16.2159 9.90933C15.9326 7.62726 17.0423 5.20257 18.3408 3.70496C19.7573 1.96963 22.2363 0.733514 24.243 0.638428C24.4791 3.01558 23.5584 5.34519 22.1654 7.08052ZM24.2193 10.361C22.2226 10.2453 20.4006 10.9656 18.929 11.5475C17.982 11.9219 17.1801 12.239 16.5699 12.239C15.8853 12.239 15.0502 11.9049 14.1126 11.5299C12.8841 11.0385 11.4795 10.4767 10.0066 10.5036C6.63053 10.5512 3.49052 12.4767 1.76706 15.5432C-1.7743 21.6763 0.846306 30.757 4.26962 35.749C5.94587 38.2212 7.95264 40.9312 10.5969 40.8361C11.7601 40.7919 12.597 40.4344 13.463 40.0644C14.46 39.6384 15.4957 39.1959 17.113 39.1959C18.6741 39.1959 19.6646 39.6269 20.6153 40.0406C21.5193 40.434 22.3875 40.8117 23.6763 40.7886C26.4149 40.741 28.1384 38.3163 29.8146 35.8441C31.6236 33.1907 32.4185 30.6012 32.5391 30.2082L32.5493 30.1752L32.5533 30.1627C32.5504 30.1598 32.528 30.1495 32.4886 30.1313C31.8839 29.8526 27.262 27.7221 27.2176 22.0091C27.1731 17.2138 30.8836 14.7842 31.4677 14.4018L31.4678 14.4018L31.4681 14.4015L31.4683 14.4014C31.5035 14.3783 31.5273 14.3628 31.5381 14.3546C29.1772 10.8364 25.4942 10.4561 24.2193 10.361ZM43.1775 40.5272V3.46738H56.9888C64.1188 3.46738 69.1003 8.41185 69.1003 15.6384C69.1003 22.8649 64.0243 27.857 56.8 27.857H48.8909V40.5272H43.1775ZM48.8905 8.31654H55.4774C60.4353 8.31654 63.2684 10.9789 63.2684 15.6619C63.2684 20.3449 60.4353 23.0311 55.4538 23.0311H48.8905V8.31654ZM87.9642 36.0816C86.4532 38.9817 83.1243 40.8121 79.5357 40.8121C74.2237 40.8121 70.517 37.6267 70.517 32.8249C70.517 28.0706 74.1056 25.3369 80.7398 24.9327L87.8697 24.5049V22.4605C87.8697 19.4415 85.9102 17.8013 82.416 17.8013C79.5357 17.8013 77.4345 19.2989 77.0095 21.581H71.8628C72.028 16.7791 76.5138 13.2847 82.5813 13.2847C89.121 13.2847 93.3706 16.7316 93.3706 22.0802V40.5269H88.0822V36.0816H87.9642ZM81.07 36.4146C78.0244 36.4146 76.0885 34.9407 76.0885 32.6824C76.0885 30.3528 77.9536 28.9978 81.5186 28.7839L87.8694 28.3798V30.4717C87.8694 33.9423 84.9419 36.4146 81.07 36.4146ZM110.912 41.9773C108.622 48.4669 106.001 50.6063 100.43 50.6063C100.005 50.6063 98.5881 50.5588 98.2576 50.4637V46.0184C98.6117 46.066 99.4852 46.1135 99.9338 46.1135C102.46 46.1135 103.877 45.0438 104.75 42.2625L105.269 40.6223L95.5897 13.6416H101.563L108.291 35.5352H108.409L115.138 13.6416H120.946L110.912 41.9773Z" fill="black"/>
</svg>
