<svg width="18" height="22" viewBox="0 0 18 22" fill="none" xmlns="http://www.w3.org/2000/svg">
<path d="M7.00517 6.27504C6.57669 6.14946 6.13176 6.08901 5.68531 6.09571C3.54902 6.09571 1.04407 7.98362 1.04407 12.0646C1.04407 15.807 3.67043 20.0952 5.27765 20.7768C5.64298 20.9327 6.09185 21.0297 6.48502 20.9918C7.27248 20.9138 7.98643 20.5229 8.73825 20.299C8.9922 20.2567 9.29516 20.2166 9.53908 20.2155C9.8064 20.2132 10.1071 20.2823 10.4012 20.3491C11.1975 20.5318 12.0774 21.0731 12.9128 20.9918C13.2102 20.9628 13.6178 20.7835 13.7437 20.7256L13.8217 20.6922C14.7684 20.3101 16.0359 18.6584 16.8947 16.5677C17.0751 16.1267 16.8368 15.6399 16.4447 15.3682C15.332 14.5952 14.5924 13.2141 14.5924 11.8095C14.5924 10.7303 14.941 9.74455 15.6027 8.99941L15.6249 8.97379C15.7841 8.78121 15.9513 8.59541 16.1261 8.41689C16.4102 8.14066 16.4892 7.69848 16.2175 7.41001C15.3175 6.45881 14.177 5.98767 13.1389 5.98767C12.7217 5.98115 12.3061 6.03977 11.907 6.16143C11.7533 6.19818 11.0405 6.37528 10.546 6.55683C10.2597 6.63591 9.8387 6.74283 9.64378 6.79073C9.57402 6.80912 9.50205 6.81774 9.42993 6.81635C8.61128 6.78961 7.79263 6.47886 7.00517 6.27392V6.27504Z" stroke="#4F4F4F" stroke-width="1.66667" stroke-linejoin="round"/>
<path d="M11.19 3.37687C10.3735 4.35479 8.99018 4.54302 8.99018 4.54302C8.99018 4.54302 8.93449 3.14408 9.75203 2.16504C10.5696 1.18601 11.9529 1 11.9529 1C11.9529 1 12.0086 2.39894 11.1911 3.37687H11.19Z" fill="#4F4F4F" stroke="#4F4F4F" stroke-width="1.66667" stroke-linejoin="round"/>
</svg>
