<svg width="24" height="24" viewBox="0 0 24 24" fill="none" xmlns="http://www.w3.org/2000/svg">
<g id="arcticons:uma-musume-pretty-derby">
<path id="Vector" d="M12 22.75C17.9371 22.75 22.75 17.9371 22.75 12C22.75 6.06294 17.9371 1.25 12 1.25C6.06294 1.25 1.25 6.06294 1.25 12C1.25 17.9371 6.06294 22.75 12 22.75Z" stroke="#121212" stroke-width="0.5" stroke-linecap="round" stroke-linejoin="round"/>
<path id="Vector_2" d="M19.825 8.8955C18.42 4.6585 14.813 3.9525 14.1145 3.7435C13.416 3.5345 11.6785 3.47 10.824 3.7885C8.20245 4.7945 6.68545 7.762 6.68545 7.762C6.08045 8.083 4.74145 10.1335 4.96545 12.4845C4.73695 11.9655 4.16345 11.654 4.16345 11.654" stroke="#121212" stroke-width="0.5" stroke-linecap="round" stroke-linejoin="round"/>
<path id="Vector_3" d="M16.0579 7.11255C16.5529 8.31355 16.0049 13.654 14.9979 16.05C13.9899 18.446 12.5519 19.547 12.5519 19.547M1.93244 8.23055C3.15444 9.12055 2.98994 10.9725 4.16344 11.6545C4.43344 13.903 3.28994 14.883 1.67944 14.9995" stroke="#121212" stroke-width="0.5" stroke-linecap="round" stroke-linejoin="round"/>
<path id="Vector_4" d="M2.08447 16.1451C2.08447 16.1451 3.87097 15.9031 4.46847 15.1911C5.46647 14.0026 4.96547 12.4846 4.96547 12.4846C4.96547 12.4846 5.48347 12.2026 6.67347 12.7161C7.33347 13.5371 7.28447 14.8411 7.20547 15.5051C7.12047 16.2176 5.45547 19.2751 3.87047 19.0181M14.796 16.4951C14.796 16.4951 12.064 17.7426 10.543 17.7651C9.67697 17.2901 7.89597 14.9831 7.89597 14.9831M10.6325 10.9241C9.35297 9.09362 8.18697 11.0686 7.92347 11.5941L8.16047 12.0231M13.519 11.5946C15.476 10.6641 15.8075 12.3661 15.674 13.2886L15.2095 13.8046M10.824 3.78862C10.824 3.78862 10.974 2.40361 10.64 2.17511C10.306 1.94611 9.26647 3.08061 8.71597 4.00661C8.22597 4.46761 7.15597 3.87312 6.46547 4.61662C6.65447 5.14412 7.78247 6.14362 7.78247 6.14362M11.671 12.9391L11.572 13.2381M12.5925 15.1226C12.3235 14.5351 11.0055 14.0826 9.89647 14.5111C9.70497 15.5611 9.86247 16.7301 10.809 16.8806C11.7555 17.0311 12.517 16.1726 12.5925 15.1226Z" stroke="#121212" stroke-width="0.5" stroke-linecap="round" stroke-linejoin="round"/>
<path id="Vector_5" d="M7.84146 13.8615C7.64996 15.9605 9.27496 18.2765 9.57846 18.4245C8.69646 18.137 7.64446 17.002 7.19446 15.5795M16.277 4.56348C19.579 7.81548 21.033 17.6725 12.552 19.547" stroke="#121212" stroke-width="0.5" stroke-linecap="round" stroke-linejoin="round"/>
<path id="Vector_6" d="M17.432 19.0075C19.802 17.8045 20.69 14.964 19.97 11.137M17.641 5.50853C17.982 4.79003 19.0165 4.69603 19.0165 4.69603L19.5815 4.40503M20.733 5.74353C20.243 6.85103 19.4555 7.46253 19.1595 7.38503M7.85448 16.9405C7.99098 19.2685 6.96448 21.4855 6.96448 21.4855M9.57848 18.4245L9.84748 19.8255L12.5045 17.373" stroke="#121212" stroke-width="0.5" stroke-linecap="round" stroke-linejoin="round"/>
<path id="Vector_7" d="M8.25997 21.936C8.25497 21.5315 8.55997 20.5375 9.84747 19.825M9.84747 19.825C9.24147 20.9625 9.43397 21.9705 9.43397 21.9705M9.84747 19.825C11.311 24.2165 14.951 20.693 9.84747 19.825ZM12.965 17.227C13.487 17.61 13.505 18.561 13.505 18.561M13.597 22.631C13.597 22.631 13.7785 20.3905 13.6085 19.534C14.8585 19.536 15.2145 20.477 15.118 20.9225C15.009 21.4245 15.457 22.169 15.457 22.169M15.376 18.496C16.139 18.8655 15.173 20.018 17.021 21.506M18.478 8.42602C20.269 8.40102 20.58 10.1745 20.4045 10.6625C20.2285 11.15 19.3305 11.5675 18.877 10.997M7.49197 4.20902C6.74297 0.968021 9.29797 2.08152 9.69597 2.70402M14.1995 8.72502C14.2125 9.35102 14.172 9.97852 14.0425 10.5445C15.8575 8.63602 15.2405 4.79652 14.1145 3.74352C11.764 4.07002 9.17047 7.69852 8.42047 10.0345C9.00047 9.04052 11.833 6.96352 12.7045 5.86302C12.7515 6.50902 11.8115 9.73952 10.9965 11.237C12.7295 10.953 13.5075 10.195 14.165 8.81152M6.68547 7.76252C5.80897 7.08252 6.96047 5.36652 7.78247 6.14402M6.67347 12.716C6.40047 10.889 7.13697 9.19102 7.13697 9.19102" stroke="#121212" stroke-width="0.5" stroke-linecap="round" stroke-linejoin="round"/>
</g>
</svg>
