<svg width="25" height="24" viewBox="0 0 25 24" fill="none" xmlns="http://www.w3.org/2000/svg">
<g clip-path="url(#clip0_39_30246)">
<path d="M0.500977 2.19C0.500977 2.007 0.573673 1.8315 0.703073 1.7021C0.832473 1.5727 1.00798 1.5 1.19098 1.5H3.26098C3.41489 1.50004 3.56437 1.55154 3.68565 1.64631C3.80692 1.74108 3.89303 1.87368 3.93028 2.02302L4.48918 4.26H20.511C20.6123 4.26009 20.7123 4.2825 20.804 4.32562C20.8957 4.36874 20.9768 4.43153 21.0414 4.50951C21.1061 4.58749 21.1528 4.67876 21.1783 4.77683C21.2037 4.87491 21.2072 4.97737 21.1886 5.07696L19.1186 16.117C19.089 16.2751 19.005 16.4179 18.8813 16.5207C18.7576 16.6235 18.6018 16.6798 18.441 16.68H6.02098C5.86011 16.6798 5.70436 16.6235 5.58063 16.5207C5.45691 16.4179 5.373 16.2751 5.3434 16.117L3.27478 5.09766L2.72278 2.88H1.19098C1.00798 2.88 0.832473 2.8073 0.703073 2.6779C0.573673 2.5485 0.500977 2.373 0.500977 2.19ZM4.78174 5.64L6.59368 15.3H17.8683L19.6802 5.64H4.78174ZM7.40098 16.68C6.66898 16.68 5.96696 16.9708 5.44936 17.4884C4.93176 18.006 4.64098 18.708 4.64098 19.44C4.64098 20.172 4.93176 20.874 5.44936 21.3916C5.96696 21.9092 6.66898 22.2 7.40098 22.2C8.13297 22.2 8.83499 21.9092 9.35259 21.3916C9.87019 20.874 10.161 20.172 10.161 19.44C10.161 18.708 9.87019 18.006 9.35259 17.4884C8.83499 16.9708 8.13297 16.68 7.40098 16.68ZM17.061 16.68C16.329 16.68 15.627 16.9708 15.1094 17.4884C14.5918 18.006 14.301 18.708 14.301 19.44C14.301 20.172 14.5918 20.874 15.1094 21.3916C15.627 21.9092 16.329 22.2 17.061 22.2C17.793 22.2 18.495 21.9092 19.0126 21.3916C19.5302 20.874 19.821 20.172 19.821 19.44C19.821 18.708 19.5302 18.006 19.0126 17.4884C18.495 16.9708 17.793 16.68 17.061 16.68ZM7.40098 18.06C7.76698 18.06 8.11798 18.2054 8.37678 18.4642C8.63558 18.723 8.78098 19.074 8.78098 19.44C8.78098 19.806 8.63558 20.157 8.37678 20.4158C8.11798 20.6746 7.76698 20.82 7.40098 20.82C7.03498 20.82 6.68397 20.6746 6.42517 20.4158C6.16637 20.157 6.02098 19.806 6.02098 19.44C6.02098 19.074 6.16637 18.723 6.42517 18.4642C6.68397 18.2054 7.03498 18.06 7.40098 18.06ZM17.061 18.06C17.427 18.06 17.778 18.2054 18.0368 18.4642C18.2956 18.723 18.441 19.074 18.441 19.44C18.441 19.806 18.2956 20.157 18.0368 20.4158C17.778 20.6746 17.427 20.82 17.061 20.82C16.695 20.82 16.344 20.6746 16.0852 20.4158C15.8264 20.157 15.681 19.806 15.681 19.44C15.681 19.074 15.8264 18.723 16.0852 18.4642C16.344 18.2054 16.695 18.06 17.061 18.06Z" fill="#13544E"/>
</g>
<defs>
<clipPath id="clip0_39_30246">
<rect width="24" height="24" fill="white" transform="translate(0.5)"/>
</clipPath>
</defs>
</svg>
