<svg width="25" height="24" viewBox="0 0 25 24" fill="none" xmlns="http://www.w3.org/2000/svg">
<path d="M6.5 15.9729C6.71367 18.3543 8.68431 20.0443 11.6843 20.2629V22H13.1901V20.2629C16.4673 20.0071 18.5 18.2086 18.5 15.5486C18.5 13.2771 17.1328 11.9629 14.2324 11.2229L13.1901 10.9557V5.52429C14.8099 5.68143 15.9028 6.54429 16.1785 7.83286H18.3008C18.0611 5.54714 16.0775 3.90714 13.1901 3.72571V2H11.6843V3.76143C8.88499 4.09 6.96343 5.86429 6.96343 8.27C6.96343 10.3471 8.35804 11.8171 10.8051 12.4371L11.6858 12.6686V18.4271C10.0269 18.1843 8.88499 17.2843 8.60924 15.9729H6.5ZM11.3956 10.4929C9.8898 10.1171 9.08566 9.31429 9.08566 8.18429C9.08566 6.83571 10.102 5.84 11.6843 5.57286V10.5657L11.3956 10.4929ZM13.6925 13.1671C15.5505 13.6286 16.3662 14.3943 16.3662 15.6943C16.3662 17.2614 15.1737 18.3057 13.1901 18.4643V13.0429L13.6925 13.1671Z" fill="black"/>
</svg>
