<svg width="22" height="22" viewBox="0 0 22 22" fill="none" xmlns="http://www.w3.org/2000/svg">
<path d="M11 21.0002C9.68678 21.0002 8.38642 20.7415 7.17317 20.2389C5.95991 19.7364 4.85752 18.9998 3.92893 18.0712C3.00035 17.1426 2.26375 16.0402 1.7612 14.827C1.25866 13.6137 1 12.3134 1 11.0002C1 9.68693 1.25866 8.38657 1.7612 7.17332C2.26375 5.96006 3.00035 4.85767 3.92893 3.92908C4.85752 3.0005 5.95991 2.2639 7.17317 1.76136C8.38642 1.25881 9.68678 1.00015 11 1.00015C13.6522 1.00015 16.1957 2.05372 18.0711 3.92909C19.9464 5.80445 21 8.34799 21 11.0002C21 13.6523 19.9464 16.1959 18.0711 18.0712C16.1957 19.9466 13.6522 21.0002 11 21.0002ZM11 21.0002V9.57158C11 8.81382 11.301 8.08709 11.8368 7.55128C12.3727 7.01546 13.0994 6.71444 13.8571 6.71444H14.5714M7.42857 12.4287H14.5714" stroke="#4F4F4F" stroke-width="1.66667"/>
</svg>
