<svg width="124" height="52" viewBox="0 0 124 52" fill="none" xmlns="http://www.w3.org/2000/svg">
<path fill-rule="evenodd" clip-rule="evenodd" d="M57.112 40.3437V25.3908H64.8295C67.9919 25.3908 70.6611 24.3311 72.8371 22.2412L73.3593 21.7114C77.3341 17.3845 77.073 10.6439 72.8371 6.64074C70.7192 4.52142 67.8178 3.37346 64.8295 3.43233H52.4409V40.3437H57.112ZM57.1125 20.8576V7.96508H64.9473C66.6303 7.96508 68.2263 8.61265 69.416 9.79005C71.9405 12.2626 71.9986 16.3835 69.5611 18.9443C68.3713 20.21 66.6883 20.9164 64.9473 20.8576H57.1125ZM95.1484 17.0605C93.1465 15.2061 90.4193 14.2642 86.9668 14.2642C82.5278 14.2642 79.1913 15.9125 76.9863 19.1798L81.1061 21.7995C82.6148 19.5625 84.6747 18.4439 87.2859 18.4439C88.9397 18.4439 90.5354 19.0621 91.7829 20.1806C93.0015 21.2403 93.6978 22.7709 93.6978 24.3898V25.4789C91.899 24.4781 89.636 23.9483 86.8507 23.9483C83.6013 23.9483 80.9901 24.7136 79.0462 26.2736C77.1023 27.8337 76.1159 29.8941 76.1159 32.5138C76.0579 34.8981 77.0733 37.1645 78.8721 38.6952C80.6999 40.3435 83.021 41.1677 85.7482 41.1677C88.9687 41.1677 91.5218 39.7254 93.4657 36.8408H93.6688V40.3435H98.1368V24.7725C98.1368 21.5052 97.1503 18.9149 95.1484 17.0605ZM82.4703 35.6927C81.5128 34.9862 80.9324 33.8383 80.9324 32.602C80.9324 31.2186 81.5708 30.0706 82.8186 29.1581C84.0953 28.2456 85.6913 27.7747 87.5775 27.7747C90.189 27.7452 92.2203 28.3339 93.6712 29.5113C93.6712 31.5129 92.8877 33.2496 91.3498 34.7213C89.9569 36.1342 88.0708 36.9289 86.0976 36.9289C84.7918 36.9584 83.515 36.5168 82.4703 35.6927ZM108.175 51.4403L123.784 15.0882H118.707L111.483 33.2201H111.396L103.997 15.0882H98.92L109.162 38.7245L103.359 51.4403H108.175Z" fill="#3C4043"/>
<path d="M40.9855 22.153C40.9855 20.7107 40.8695 19.2683 40.6374 17.8555H20.9375V26.0089H32.2236C31.7594 28.6286 30.2507 30.9834 28.0457 32.4552V37.7535H34.7767C38.7225 34.0741 40.9855 28.6286 40.9855 22.153Z" fill="#4285F4"/>
<path d="M20.9386 42.875C26.5671 42.875 31.3253 40.9912 34.7779 37.7533L28.0468 32.4551C26.161 33.7502 23.7529 34.4861 20.9386 34.4861C15.4842 34.4861 10.8711 30.7478 9.21733 25.7439H2.2832V31.2188C5.8228 38.3715 13.0471 42.875 20.9386 42.875Z" fill="#34A853"/>
<path d="M9.21787 25.7438C8.34734 23.1241 8.34734 20.2689 9.21787 17.6198V12.1743H2.28263C-0.706191 18.1496 -0.706191 25.214 2.28263 31.1893L9.21787 25.7438Z" fill="#FBBC04"/>
<path d="M20.9386 8.87778C23.927 8.81891 26.7993 9.96687 28.9462 12.0567L34.9229 5.99316C31.1222 2.4021 26.132 0.42996 20.9386 0.48883C13.0471 0.48883 5.8228 5.0218 2.2832 12.1745L9.21733 17.6494C10.8711 12.616 15.4842 8.87778 20.9386 8.87778Z" fill="#EA4335"/>
</svg>
