<svg width="20" height="20" viewBox="0 0 20 20" fill="none" xmlns="http://www.w3.org/2000/svg">
<path d="M17.2026 20H2.79736C2.05545 20 1.34393 19.7053 0.819328 19.1807C0.294721 18.6561 0 17.9445 0 17.2026V2.79736C0 2.05545 0.294721 1.34393 0.819328 0.819328C1.34393 0.294721 2.05545 0 2.79736 0H17.2026C17.9445 0 18.6561 0.294721 19.1807 0.819328C19.7053 1.34393 20 2.05545 20 2.79736V17.2026C20 17.9445 19.7053 18.6561 19.1807 19.1807C18.6561 19.7053 17.9445 20 17.2026 20ZM2.79736 1.11894C2.35222 1.11894 1.9253 1.29578 1.61054 1.61054C1.29578 1.9253 1.11894 2.35222 1.11894 2.79736V17.2026C1.11894 17.6478 1.29578 18.0747 1.61054 18.3895C1.9253 18.7042 2.35222 18.8811 2.79736 18.8811H17.2026C17.6478 18.8811 18.0747 18.7042 18.3895 18.3895C18.7042 18.0747 18.8811 17.6478 18.8811 17.2026V2.79736C18.8811 2.35222 18.7042 1.9253 18.3895 1.61054C18.0747 1.29578 17.6478 1.11894 17.2026 1.11894H2.79736Z" fill="#4F4F4F"/>
<path d="M9.99923 15.1404C8.98252 15.1393 7.98897 14.8368 7.14415 14.2711C6.29934 13.7054 5.64121 12.902 5.25295 11.9623C4.86469 11.0227 4.76373 9.989 4.96284 8.99197C5.16195 7.99495 5.65219 7.07934 6.37158 6.36089C7.09097 5.64243 8.00722 5.15339 9.00451 4.95558C10.0018 4.75777 11.0353 4.86008 11.9745 5.24957C12.9136 5.63905 13.7162 6.29823 14.2808 7.14378C14.8454 7.98933 15.1466 8.98328 15.1464 9.99999C15.1446 11.3639 14.6015 12.6714 13.6364 13.6352C12.6714 14.5991 11.3632 15.1404 9.99923 15.1404ZM9.99923 5.9718C9.20412 5.9729 8.42716 6.20963 7.7665 6.65206C7.10585 7.09449 6.59113 7.72279 6.28736 8.4576C5.9836 9.1924 5.90441 10.0008 6.0598 10.7805C6.21519 11.5603 6.59819 12.2766 7.16042 12.8388C7.72266 13.401 8.4389 13.784 9.21869 13.9394C9.99848 14.0948 10.8068 14.0156 11.5416 13.7119C12.2764 13.4081 12.9047 12.8934 13.3472 12.2327C13.7896 11.5721 14.0263 10.7951 14.0274 9.99999C14.0274 8.93165 13.603 7.90706 12.8476 7.15163C12.0922 6.3962 11.0676 5.9718 9.99923 5.9718Z" fill="#4F4F4F"/>
<path d="M15.8161 5.41781C16.4805 5.41781 17.019 4.87927 17.019 4.21495C17.019 3.55063 16.4805 3.01208 15.8161 3.01208C15.1518 3.01208 14.6133 3.55063 14.6133 4.21495C14.6133 4.87927 15.1518 5.41781 15.8161 5.41781Z" fill="#4F4F4F"/>
</svg>
