<svg width="24" height="24" viewBox="0 0 24 24" fill="none" xmlns="http://www.w3.org/2000/svg">
<path d="M12.3533 0.108314C12.2447 0.0371959 12.1237 0 12.0008 0C11.8778 0 11.7568 0.0371959 11.6482 0.108314L0.398069 7.49331C0.278259 7.5721 0.178083 7.68946 0.108237 7.83286C0.0383922 7.97625 0.00150002 8.14031 0.00150002 8.3075C0.00150002 8.4747 0.0383922 8.63875 0.108237 8.78215C0.178083 8.92555 0.278259 9.04291 0.398069 9.1217L4.78264 12L0.396569 14.8783C0.276759 14.9571 0.176583 15.0745 0.106737 15.2179C0.0368921 15.3612 0 15.5253 0 15.6925C0 15.8597 0.0368921 16.0237 0.106737 16.1671C0.176583 16.3105 0.276759 16.4279 0.396569 16.5067L11.6467 23.8917C11.7553 23.9628 11.8763 24 11.9992 24C12.1222 24 12.2432 23.9628 12.3518 23.8917L23.6019 16.5067C23.7217 16.4279 23.8219 16.3105 23.8918 16.1671C23.9616 16.0237 23.9985 15.8597 23.9985 15.6925C23.9985 15.5253 23.9616 15.3612 23.8918 15.2179C23.8219 15.0745 23.7217 14.9571 23.6019 14.8783L19.2204 12L23.6034 9.1217C23.7232 9.04291 23.8234 8.92555 23.8933 8.78215C23.9631 8.63875 24 8.4747 24 8.3075C24 8.14031 23.9631 7.97625 23.8933 7.83286C23.8234 7.68946 23.7232 7.5721 23.6034 7.49331L12.3533 0.108314ZM17.6258 13.0468L21.6579 15.6925L12.0008 22.0307L2.3436 15.6925L6.37566 13.0468L11.6482 16.5067C11.7568 16.5778 11.8778 16.615 12.0008 16.615C12.1237 16.615 12.2447 16.5778 12.3533 16.5067L17.6258 13.0468ZM12.0008 14.6457L2.3436 8.3075L12.0008 1.96933L21.6579 8.3075L12.0008 14.6457Z" fill="#1E1E1E"/>
</svg>
