<svg width="22" height="22" viewBox="0 0 22 22" fill="none" xmlns="http://www.w3.org/2000/svg">
<path d="M6.71429 8.8573V16.0002M15.2857 16.0002V12.4287C15.2857 11.671 14.9847 10.9442 14.4489 10.4084C13.9131 9.8726 13.1863 9.57158 12.4286 9.57158C11.6708 9.57158 10.9441 9.8726 10.4083 10.4084C9.87245 10.9442 9.57143 11.671 9.57143 12.4287V16.0002V8.8573M6 6.71444H7.42857M2.42857 1.00015H19.5714C19.9503 1.00015 20.3137 1.15066 20.5816 1.41857C20.8495 1.68648 21 2.04984 21 2.42872V19.5716C21 19.9505 20.8495 20.3138 20.5816 20.5817C20.3137 20.8496 19.9503 21.0002 19.5714 21.0002H2.42857C2.04969 21.0002 1.68633 20.8496 1.41842 20.5817C1.15051 20.3138 1 19.9505 1 19.5716V2.42872C1 2.04984 1.15051 1.68648 1.41842 1.41857C1.68633 1.15066 2.04969 1.00015 2.42857 1.00015Z" stroke="#4F4F4F" stroke-width="1.66667"/>
</svg>
