<svg width="16" height="16" viewBox="0 0 16 16" fill="none" xmlns="http://www.w3.org/2000/svg">
<g id="link" clip-path="url(#clip0_39_113)">
<path id="Icon" d="M6.66411 8.66672C6.95042 9.04948 7.31569 9.36618 7.73515 9.59535C8.15461 9.82452 8.61845 9.9608 9.09522 9.99495C9.57198 10.0291 10.0505 9.9603 10.4983 9.79325C10.9462 9.62619 11.3529 9.36477 11.6908 9.02672L13.6908 7.02672C14.298 6.39805 14.634 5.55604 14.6264 4.68205C14.6188 3.80806 14.2682 2.97202 13.6502 2.354C13.0322 1.73597 12.1961 1.38541 11.3221 1.37781C10.4481 1.37022 9.60612 1.7062 8.97745 2.31339L7.83078 3.45339M9.33078 7.33339C9.04448 6.95064 8.67921 6.63394 8.25975 6.40476C7.84029 6.17559 7.37644 6.03931 6.89968 6.00517C6.42292 5.97102 5.94439 6.03981 5.49655 6.20687C5.04871 6.37393 4.64204 6.63534 4.30411 6.97339L2.30411 8.97339C1.69692 9.60207 1.36094 10.4441 1.36853 11.3181C1.37613 12.1921 1.72669 13.0281 2.34472 13.6461C2.96275 14.2641 3.79879 14.6147 4.67278 14.6223C5.54677 14.6299 6.38877 14.2939 7.01745 13.6867L8.15745 12.5467" stroke="currentColor" stroke-width="1.33333" stroke-linecap="round" stroke-linejoin="round"/>
</g>
<defs>
<clipPath id="clip0_39_113">
<rect width="16" height="16" fill="white"/>
</clipPath>
</defs>
</svg>
