<svg width="22" height="26" viewBox="0 0 22 26" fill="none" xmlns="http://www.w3.org/2000/svg">
<path d="M11.7467 24.7597C11.5291 24.9159 11.2679 25 11 25C10.7321 25 10.4709 24.9159 10.2533 24.7597C3.81446 20.1704 -3.01908 10.7305 3.88913 3.90929C5.78564 2.04378 8.3397 0.998832 11 1C13.6667 1 16.2255 2.04665 18.1109 3.90796C25.0191 10.7292 18.1855 20.1677 11.7467 24.7597Z" stroke="#4F4F4F" stroke-width="2.00006" stroke-linecap="round" stroke-linejoin="round"/>
<path d="M10.9988 12.9999C11.706 12.9999 12.3843 12.7189 12.8844 12.2188C13.3846 11.7188 13.6655 11.0405 13.6655 10.3333C13.6655 9.62602 13.3846 8.94775 12.8844 8.44766C12.3843 7.94757 11.706 7.66663 10.9988 7.66663C10.2915 7.66663 9.61321 7.94757 9.1131 8.44766C8.61299 8.94775 8.33203 9.62602 8.33203 10.3333C8.33203 11.0405 8.61299 11.7188 9.1131 12.2188C9.61321 12.7189 10.2915 12.9999 10.9988 12.9999Z" stroke="#4F4F4F" stroke-width="2.00006" stroke-linecap="round" stroke-linejoin="round"/>
</svg>
