<svg width="168" height="41" viewBox="0 0 168 41" fill="none" xmlns="http://www.w3.org/2000/svg">
<path d="M62.9007 9.43107H53.6401C53.0066 9.43107 52.4676 9.8759 52.3685 10.4813L48.6231 33.4432C48.5575 33.8505 48.8454 34.2319 49.2666 34.296C49.3061 34.3018 49.3463 34.3051 49.3872 34.3051H53.8082C54.4424 34.3051 54.9814 33.8589 55.0799 33.2535L56.0904 27.0601C56.1881 26.4553 56.7272 26.0092 57.3607 26.0086H60.2924C66.393 26.0086 69.9133 23.1543 70.8328 17.4977C71.2473 15.0229 70.8502 13.0785 69.6522 11.7168C68.3356 10.2217 66.0012 9.43042 62.9021 9.43042L62.9007 9.43107ZM63.9688 17.8176C63.4626 21.0305 60.9233 21.0305 58.4683 21.0305H57.0707L58.0511 15.0301C58.1107 14.6675 58.4335 14.4 58.8132 14.4H59.4534C61.1255 14.4 62.7032 14.4 63.5182 15.3221C64.0043 15.8718 64.153 16.689 63.9675 17.8176H63.9688ZM90.5828 17.714H86.1484C85.7687 17.714 85.4452 17.9814 85.3863 18.344L85.1901 19.5432L84.88 19.1087C83.9198 17.7613 81.7789 17.3112 79.642 17.3112C74.7415 17.3112 70.5555 20.9004 69.7406 25.9347C69.3167 28.4458 69.9194 30.8474 71.3926 32.5218C72.7439 34.0616 74.6779 34.7033 76.9782 34.7033C80.9271 34.7033 83.1162 32.2486 83.1162 32.2486L82.9186 33.44C82.851 33.8473 83.1383 34.23 83.5588 34.2947C83.599 34.3012 83.6392 34.3038 83.6794 34.3038H87.6738C88.308 34.3038 88.8471 33.8576 88.9455 33.2522L91.3422 18.5758C91.4098 18.1705 91.1239 17.7884 90.7047 17.7237C90.6645 17.7172 90.6236 17.714 90.5828 17.714ZM84.4012 26.0597C83.9733 28.5092 81.9624 30.1539 79.3976 30.1539C78.1099 30.1539 77.0806 29.7544 76.4197 28.9975C75.7641 28.2457 75.515 27.176 75.7239 25.9846C76.1237 23.5558 78.1681 21.8574 80.6934 21.8574C81.953 21.8574 82.9762 22.2621 83.6506 23.0255C84.3262 23.7967 84.5941 24.8728 84.4006 26.0591L84.4012 26.0597ZM114.201 17.714H109.745C109.318 17.7146 108.919 17.9192 108.679 18.2598L102.533 27.0141L99.9278 18.6017C99.7637 18.0746 99.2622 17.714 98.6929 17.714H94.3134C93.8869 17.7127 93.5406 18.0462 93.5393 18.4586C93.5393 18.5415 93.5534 18.6231 93.5808 18.7014L98.4894 32.63L93.8748 38.9289C93.6277 39.265 93.7094 39.7312 94.0569 39.9695C94.1875 40.0595 94.3442 40.1074 94.5043 40.1074H98.9555C99.3773 40.1074 99.7724 39.9086 100.013 39.5732L114.835 18.8853C115.078 18.5467 114.991 18.0818 114.641 17.8467C114.511 17.76 114.358 17.7133 114.201 17.7133L114.201 17.714Z" fill="#253B80"/>
<path d="M128.956 9.43098H119.694C119.061 9.43098 118.522 9.87647 118.423 10.4812L114.678 33.4432C114.612 33.8498 114.898 34.2312 115.318 34.2953C115.358 34.3011 115.399 34.3043 115.439 34.3043H120.192C120.635 34.3043 121.012 33.9916 121.081 33.5688L122.143 27.06C122.241 26.4553 122.78 26.0091 123.414 26.0085H126.344C132.446 26.0085 135.965 23.1543 136.886 17.4976C137.302 15.0229 136.902 13.0784 135.704 11.7167C134.389 10.2216 132.055 9.43034 128.956 9.43034L128.956 9.43098ZM130.024 17.8175C129.519 21.0304 126.979 21.0304 124.523 21.0304H123.127L124.109 15.03C124.167 14.6674 124.49 14.4 124.869 14.4H125.51C127.18 14.4 128.759 14.4 129.574 15.322C130.061 15.8717 130.208 16.6889 130.022 17.8175H130.024ZM156.636 17.7139H152.205C151.825 17.7126 151.501 17.9807 151.444 18.3439L151.248 19.5431L150.936 19.1086C149.976 17.7612 147.836 17.3112 145.7 17.3112C140.799 17.3112 136.615 20.9003 135.799 25.9347C135.377 28.4457 135.977 30.8473 137.45 32.5218C138.804 34.0615 140.735 34.7032 143.036 34.7032C146.985 34.7032 149.174 32.2485 149.174 32.2485L148.976 33.4399C148.909 33.8472 149.196 34.2299 149.616 34.2946C149.657 34.3011 149.699 34.3043 149.74 34.3037H153.733C154.366 34.3037 154.905 33.8576 155.003 33.2521L157.401 18.5757C157.466 18.1678 157.177 17.7858 156.755 17.723C156.715 17.7171 156.676 17.7139 156.636 17.7145V17.7139ZM150.455 26.0596C150.03 28.5091 148.016 30.1538 145.451 30.1538C144.166 30.1538 143.134 29.7543 142.473 28.9974C141.818 28.2456 141.571 27.1759 141.777 25.9845C142.18 23.5557 144.222 21.8573 146.747 21.8573C148.007 21.8573 149.03 22.262 149.704 23.0254C150.382 23.7966 150.65 24.8727 150.454 26.059L150.455 26.0596ZM161.864 10.061L158.063 33.4432C157.997 33.8498 158.284 34.2312 158.704 34.2953C158.744 34.3011 158.784 34.3043 158.824 34.3043H162.645C163.28 34.3043 163.819 33.8589 163.917 33.2528L167.665 10.2922C167.731 9.88489 167.444 9.50286 167.023 9.43875C166.983 9.43292 166.944 9.42969 166.903 9.42969H162.624C162.245 9.43098 161.923 9.6984 161.864 10.061H161.864Z" fill="#179BD7"/>
<path d="M10.1643 38.7671L10.8728 34.4171L9.29512 34.3815H1.76221L6.99687 2.2865C7.02902 2.08383 7.20982 1.93426 7.4221 1.93556H20.1241C24.3409 1.93556 27.2505 2.78379 28.7699 4.45889C29.4824 5.24432 29.9358 6.06536 30.1554 6.96863C30.3858 7.91658 30.3898 9.04908 30.1648 10.4309L30.1487 10.5319V11.417L30.8613 11.8075C31.405 12.0736 31.8939 12.4342 32.3037 12.8707C32.9131 13.5421 33.3068 14.3962 33.4736 15.4082C33.6457 16.4494 33.5887 17.6881 33.3068 19.09C32.982 20.7029 32.4564 22.108 31.7472 23.2573C31.1211 24.2875 30.2793 25.1791 29.2762 25.8759C28.334 26.5227 27.2137 27.0135 25.948 27.3282C24.7212 27.6371 23.3223 27.7931 21.7881 27.7931H20.7997C20.0926 27.7931 19.4062 28.0392 18.8671 28.4808C18.3287 28.9269 17.9718 29.5427 17.86 30.2193L17.7856 30.6111L16.5347 38.2776L16.4778 38.5592C16.4631 38.6486 16.437 38.6926 16.3995 38.7231C16.3626 38.7522 16.3171 38.7684 16.2695 38.769H10.1663L10.1643 38.7671Z" fill="#253B80"/>
<path d="M31.5348 10.6335C31.4967 10.8679 31.4538 11.1075 31.4049 11.3536C29.7301 19.6695 23.9993 22.5419 16.68 22.5419H12.9534C12.058 22.5419 11.304 23.1706 11.1647 24.024L9.25687 35.7245L8.71646 39.041C8.6341 39.5441 8.98901 40.0161 9.50933 40.0958C9.55822 40.1036 9.60777 40.1068 9.65799 40.1068H16.2675C17.0503 40.1068 17.7152 39.5571 17.8385 38.8105L17.9034 38.4861L19.1476 30.85L19.2273 30.4311C19.3492 29.6819 20.0155 29.1322 20.7983 29.1322H21.7867C28.1906 29.1322 33.2036 26.6186 34.6688 19.3438C35.2809 16.3051 34.9641 13.7675 33.3442 11.983C32.8306 11.4306 32.2179 10.9741 31.5348 10.6342V10.6335Z" fill="#179BD7"/>
<path d="M29.7831 9.9574C29.248 9.80783 28.7043 9.69127 28.1538 9.60774C27.067 9.44652 25.9681 9.36881 24.8685 9.37594H14.9128C14.13 9.37594 13.4636 9.92697 13.3431 10.6748L11.225 23.6451L11.1641 24.0232C11.3007 23.1698 12.0601 22.5404 12.9527 22.5411H16.6793C23.9986 22.5411 29.7288 19.6668 31.4043 11.3528C31.4545 11.1067 31.4967 10.8671 31.5342 10.6327C31.0922 10.4087 30.6315 10.2209 30.1567 10.0714C30.0322 10.0312 29.9076 9.99366 29.7817 9.9574H29.7831Z" fill="#222D65"/>
<path d="M13.3431 10.6749C13.4623 9.92636 14.1293 9.37469 14.9128 9.37728H24.8685C26.0478 9.37728 27.1487 9.45174 28.1538 9.60908C28.8335 9.71269 29.5045 9.86679 30.1594 10.0714C30.6536 10.23 31.113 10.4172 31.5369 10.6328C32.0351 7.55972 31.5329 5.46763 29.8146 3.57302C27.9188 1.4874 24.4995 0.594482 20.1247 0.594482H7.42276C6.52877 0.594482 5.76671 1.22321 5.62876 2.07792L0.337841 34.5038C0.24342 35.0794 0.649899 35.6201 1.24522 35.7114C1.30147 35.7198 1.35772 35.7244 1.41464 35.7244H9.25626L11.225 23.6458L13.3431 10.6755V10.6749Z" fill="#253B80"/>
</svg>
