<svg width="198" height="194" viewBox="0 0 198 194" fill="none" xmlns="http://www.w3.org/2000/svg">
<g opacity="0.6" filter="url(#filter0_d_43_947)">
<path fill-rule="evenodd" clip-rule="evenodd" d="M99 171C109.506 171 119.909 168.982 129.615 165.063C139.321 161.143 148.14 155.397 155.569 148.154C162.997 140.911 168.89 132.313 172.91 122.849C176.931 113.386 179 103.243 179 93C179 82.7569 176.931 72.6141 172.91 63.1507C168.89 53.6873 162.997 45.0886 155.569 37.8457C148.14 30.6027 139.321 24.8573 129.615 20.9374C119.909 17.0175 109.506 15 99 15C77.7827 15 57.4344 23.2178 42.4315 37.8457C27.4285 52.4735 19 72.3131 19 93C19 113.687 27.4285 133.526 42.4315 148.154C57.4344 162.782 77.7827 171 99 171ZM88.1822 58.2467L138.351 85.4253C139.736 86.1761 140.89 87.2743 141.694 88.6061C142.497 89.9379 142.921 91.4549 142.921 93C142.921 94.5451 142.497 96.0621 141.694 97.3939C140.89 98.7257 139.736 99.8239 138.351 100.575L88.1822 127.753C86.5578 128.634 84.7256 129.085 82.8672 129.062C81.0088 129.04 79.1887 128.544 77.5873 127.625C75.9858 126.705 74.6585 125.394 73.737 123.82C72.8154 122.246 72.3316 120.465 72.3333 118.653V67.3467C72.3316 65.5346 72.8154 63.7535 73.737 62.1799C74.6585 60.6063 75.9858 59.2948 77.5873 58.3753C79.1887 57.4557 81.0088 56.9602 82.8672 56.9376C84.7256 56.915 86.5578 57.3663 88.1822 58.2467Z" fill="#FEFEFE" shape-rendering="crispEdges"/>
<path d="M84.6087 64.8406L84.6097 64.8411L134.777 92.0189C134.777 92.0189 134.777 92.019 134.777 92.0191C134.778 92.0193 134.778 92.0196 134.779 92.0198C135.004 92.1425 135.168 92.3082 135.272 92.4802C135.375 92.6511 135.421 92.8299 135.421 93C135.421 93.1701 135.375 93.3489 135.272 93.5198C135.168 93.6922 135.003 93.8583 134.777 93.9811L84.6097 121.159L84.6087 121.159C84.1155 121.427 83.5458 121.57 82.9583 121.563C82.3707 121.556 81.8061 121.399 81.3218 121.121C80.8386 120.843 80.4613 120.461 80.2089 120.03L73.737 123.82L80.2088 120.03C79.9573 119.6 79.8329 119.129 79.8333 118.661V118.653L79.8333 67.3467L79.8333 67.3394C79.8329 66.871 79.9573 66.3996 80.2088 65.9701L73.737 62.1799L80.2089 65.97C80.4613 65.539 80.8386 65.1568 81.3218 64.8794L77.5873 58.3753L81.3218 64.8794C81.8061 64.6013 82.3708 64.4442 82.9583 64.437C83.5458 64.4299 84.1155 64.5733 84.6087 64.8406ZM99 178.5C110.465 178.5 121.821 176.299 132.423 172.017C143.025 167.735 152.671 161.454 160.804 153.524C168.938 145.594 175.401 136.169 179.813 125.782C184.226 115.395 186.5 104.255 186.5 93C186.5 81.7452 184.226 70.6054 179.813 60.2181C175.401 49.8313 168.938 40.4061 160.804 32.4757C152.671 24.5456 143.025 18.2649 132.423 13.9831C121.821 9.70146 110.465 7.5 99 7.5C75.854 7.5 53.6189 16.4631 37.1957 32.4757C20.7661 48.4945 11.5 70.2618 11.5 93C11.5 115.738 20.7661 137.505 37.1957 153.524C53.6189 169.537 75.854 178.5 99 178.5Z" stroke="black" stroke-opacity="0.31" stroke-width="15" shape-rendering="crispEdges"/>
</g>
<defs>
<filter id="filter0_d_43_947" x="0" y="0" width="198" height="194" filterUnits="userSpaceOnUse" color-interpolation-filters="sRGB">
<feFlood flood-opacity="0" result="BackgroundImageFix"/>
<feColorMatrix in="SourceAlpha" type="matrix" values="0 0 0 0 0 0 0 0 0 0 0 0 0 0 0 0 0 0 127 0" result="hardAlpha"/>
<feOffset dy="4"/>
<feGaussianBlur stdDeviation="2"/>
<feComposite in2="hardAlpha" operator="out"/>
<feColorMatrix type="matrix" values="0 0 0 0 0 0 0 0 0 0 0 0 0 0 0 0 0 0 0.25 0"/>
<feBlend mode="normal" in2="BackgroundImageFix" result="effect1_dropShadow_43_947"/>
<feBlend mode="normal" in="SourceGraphic" in2="effect1_dropShadow_43_947" result="shape"/>
</filter>
</defs>
</svg>
