<svg width="16" height="16" viewBox="0 0 16 16" fill="none" xmlns="http://www.w3.org/2000/svg">
<path d="M14.9333 0L9.6 0V5.33333H10.6667V1.6C13.1733 2.63467 14.9333 5.10933 14.9333 8C14.9333 11.8187 11.8293 14.9333 8 14.9333C6.16117 14.9333 4.39764 14.2029 3.09739 12.9026C1.79714 11.6024 1.06667 9.83883 1.06667 8C1.06667 4.71467 3.34933 1.96267 6.4 1.248V0.149333C2.752 0.896 0 4.11733 0 8C0 12.4053 3.584 16 8 16C10.1217 16 12.1566 15.1571 13.6569 13.6569C15.1571 12.1566 16 10.1217 16 8C16 5.03467 14.4 2.45333 12.0107 1.06667H14.9333V0Z" fill="#13544E"/>
</svg>
