<svg width="24" height="24" viewBox="0 0 24 24" fill="none" xmlns="http://www.w3.org/2000/svg">
<path d="M15.9084 13.4411C17.1946 11.7248 17.7706 9.59701 17.5213 7.48328C17.272 5.36955 16.2158 3.42581 14.5639 2.04093C12.912 0.656045 10.7862 -0.0678464 8.61194 0.0140784C6.43766 0.0960032 4.37519 0.977702 2.83716 2.48278C1.29912 3.98786 0.398942 6.00532 0.316719 8.13154C0.234496 10.2578 0.97629 12.3359 2.3937 13.9503C3.8111 15.5647 5.79959 16.5962 7.96133 16.8384C10.1231 17.0807 12.2986 16.5159 14.0528 15.2569H14.0515C14.0904 15.3089 14.1338 15.3587 14.1816 15.4063L19.2955 20.407C19.5446 20.6507 19.8825 20.7877 20.2348 20.7878C20.5872 20.788 20.9251 20.6512 21.1744 20.4076C21.4236 20.1641 21.5637 19.8337 21.5638 19.4891C21.5639 19.1446 21.4241 18.8141 21.175 18.5704L16.0612 13.5697C16.0137 13.5226 15.9626 13.4805 15.9084 13.4411ZM16.2511 8.44816C16.2511 9.38631 16.0621 10.3153 15.695 11.182C15.3279 12.0487 14.7897 12.8363 14.1114 13.4996C13.433 14.163 12.6276 14.6892 11.7413 15.0482C10.8549 15.4072 9.90494 15.592 8.94556 15.592C7.98618 15.592 7.0362 15.4072 6.14985 15.0482C5.2635 14.6892 4.45814 14.163 3.77976 13.4996C3.10138 12.8363 2.56326 12.0487 2.19612 11.182C1.82898 10.3153 1.64002 9.38631 1.64002 8.44816C1.64002 6.55349 2.40971 4.73642 3.77976 3.39668C5.14982 2.05695 7.00801 1.30429 8.94556 1.30429C10.8831 1.30429 12.7413 2.05695 14.1114 3.39668C15.4814 4.73642 16.2511 6.55349 16.2511 8.44816Z" fill="black"/>
</svg>
