<svg width="152" height="65" viewBox="0 0 152 65" fill="none" xmlns="http://www.w3.org/2000/svg">
<path fill-rule="evenodd" clip-rule="evenodd" d="M82.3655 9.35516L71.8822 11.6712V2.9218L82.3655 0.648682V9.35516ZM104.167 14.2016C100.074 14.2016 97.4424 16.1745 95.9806 17.5469L95.4376 14.8878H86.2491V64.8966L96.6906 62.6234L96.7324 50.4858C98.2359 51.6009 100.45 53.1878 104.125 53.1878C111.601 53.1878 118.409 47.0118 118.409 33.4159C118.367 20.9781 111.476 14.2016 104.167 14.2016ZM101.661 43.7519C99.1967 43.7519 97.7349 42.8512 96.7325 41.7361L96.6907 25.8243C97.7766 24.5805 99.2802 23.7227 101.661 23.7227C105.462 23.7227 108.093 28.0974 108.093 33.7158C108.093 39.463 105.503 43.7519 101.661 43.7519ZM151.321 33.8448C151.321 22.8652 146.142 14.2016 136.243 14.2016C126.303 14.2016 120.289 22.8652 120.289 33.759C120.289 46.6686 127.389 53.1878 137.58 53.1878C142.55 53.1878 146.309 52.0298 149.149 50.4V41.8222C146.309 43.2804 143.051 44.181 138.916 44.181C134.865 44.181 131.273 42.7228 130.814 37.6619H151.237C151.237 37.4255 151.252 36.8885 151.27 36.2698C151.293 35.4292 151.321 34.4377 151.321 33.8448ZM130.688 29.7701C130.688 24.9236 133.57 22.9078 136.201 22.9078C138.749 22.9078 141.464 24.9236 141.464 29.7701H130.688ZM71.8818 14.9307H82.3651V52.4586H71.8818V14.9307ZM59.9794 14.9308L60.6477 18.1046C63.1119 13.4725 67.9985 14.4161 69.335 14.9308V24.7953C68.0402 24.3235 63.8637 23.723 61.3995 27.0255V52.4587H50.958V14.9308H59.9794ZM39.7641 5.62375L29.5732 7.85398L29.5315 42.2081C29.5315 48.5557 34.1675 53.2306 40.3488 53.2306C43.7736 53.2306 46.2796 52.5873 47.6579 51.8153V43.1088C46.3214 43.6664 39.7223 45.6393 39.7223 39.2917V24.0661H47.6579V14.9307H39.7223L39.7641 5.62375ZM15.0812 23.5085C12.8676 23.5085 11.5311 24.1519 11.5311 25.8245C11.5311 27.6508 13.8313 28.4542 16.6849 29.4509C21.3369 31.0757 27.4598 33.2142 27.4857 41.1359C27.4857 48.8131 21.5132 53.2307 12.8259 53.2307C9.234 53.2307 5.30801 52.5016 1.42378 50.786V40.5784C4.93212 42.5513 9.3593 44.0095 12.8259 44.0095C15.1648 44.0095 16.8354 43.3662 16.8354 41.3933C16.8354 39.3703 14.342 38.4457 11.3318 37.3293C6.74739 35.6293 0.964355 33.4847 0.964355 26.3392C0.964355 18.7478 6.60275 14.2016 15.0812 14.2016C18.5478 14.2016 21.9726 14.7591 25.4392 16.1745V26.2534C22.265 24.495 18.2554 23.5085 15.0812 23.5085Z" fill="#6461FC"/>
</svg>
