<svg width="22" height="16" viewBox="0 0 22 16" fill="none" xmlns="http://www.w3.org/2000/svg">
<path d="M20.556 3.19696C20.4423 2.77346 20.2193 2.3873 19.9092 2.07725C19.5992 1.76719 19.213 1.54413 18.7895 1.43047C17.6325 0.983472 6.42359 0.764473 3.17161 1.44297C2.74805 1.55668 2.36185 1.77981 2.05179 2.08996C1.74173 2.40011 1.51871 2.78637 1.40512 3.20996C0.882623 5.50145 0.843123 10.4554 1.41812 12.7984C1.53178 13.2219 1.75484 13.6081 2.0649 13.9181C2.37495 14.2282 2.76111 14.4512 3.18461 14.5649C5.4761 15.0924 16.37 15.1664 18.8025 14.5649C19.226 14.4512 19.6122 14.2282 19.9222 13.9181C20.2323 13.6081 20.4553 13.2219 20.569 12.7984C21.126 10.3019 21.1655 5.65494 20.556 3.19696Z" stroke="#4F4F4F" stroke-width="1.66667" stroke-linecap="round" stroke-linejoin="round"/>
<path d="M14.286 7.99713L9.0625 5.00165V10.9926L14.286 7.99713Z" stroke="#4F4F4F" stroke-width="1.66667" stroke-linecap="round" stroke-linejoin="round"/>
</svg>
